<svg width="128" height="128" xmlns="http://www.w3.org/2000/svg"><g transform="translate(-1,-1)" fill="none" letter-spacing="0px" stroke="#000" stroke-width="1px" word-spacing="0px"><text x="2.0823479" y="13.949324" font-family="FreeSans" font-size="13.333px" style="line-height:125%" xml:space="preserve"><tspan x="2.0823479" y="13.949324"/></text><text x="2.2509849" y="10.000001" font-family="'Noto Sans Mono'" font-size="10.667px" style="line-height:125%" xml:space="preserve"><tspan x="2.2509849" y="10.000001"/></text><g font-family="'Bitstream Vera Sans'" font-size="13.333px"><text x="2.4019496" y="10.537367" font-weight="bold" style="line-height:125%" xml:space="preserve"><tspan x="2.4019496" y="10.537367"/></text><text x="1.303919" y="11.465494" style="line-height:100%" xml:space="preserve"><tspan x="1.303919" y="11.465494"/></text><text x="0.97936291" y="12.865923" style="line-height:100%" xml:space="preserve"><tspan x="0.97936291" y="12.865923"/></text></g><text x="1.5911576" y="13.008913" font-family="Comfortaa" font-size="13.333px" style="line-height:125%" xml:space="preserve"><tspan x="1.5911576" y="13.008913"/></text><text x="1.7134534" y="12.969785" font-family="'Bitstream Vera Sans'" font-size="6.6667px" style="line-height:125%" xml:space="preserve"><tspan x="1.7134534" y="12.969785" font-family="sans-serif" font-size="6.6667px"/></text><text x="1.0747991" y="13.548843" font-family="'Bitstream Vera Sans'" font-size="5.5px" style="line-height:125%" xml:space="preserve"><tspan x="1.0747991" y="13.548843" font-family="'DejaVu Sans'" font-size="5.5px" font-weight="200"/></text></g><g transform="matrix(8,0,0,8,8,8)" fill-rule="evenodd"><g transform="translate(-1,-1)"><polygon points="16 9 1 9 1 16 16 16" fill="#b99bf8" fill-opacity=".7"/><polygon points="7 1 3 5 7 5" fill="#9aa7b0" fill-opacity=".8"/><polygon points="8 1 8 6 3 6 3 8 13 8 13 1" fill="#9aa7b0" fill-opacity=".8"/><polygon transform="translate(2.5,10)" points="5 5 4 5 4 1.7 2.5 3.5 1 1.7 1 5 0 5 0 0 0.936 0 2.5 2 3.979 0 5 0" fill="#231f20" fill-opacity=".7"/></g><polygon transform="translate(7.5,9)" points="1 0 0 0 0 5 1 5" fill="#231f20" fill-opacity=".7"/><path d="m10.5 10v3h0.649c0.929 0 1.351-0.507 1.351-1.485v-0.015c0-0.978-0.422-1.5-1.351-1.5zm-1-1h1.649c1.391 0 2.351 1.093 2.351 2.5 0 1.421-0.96 2.5-2.351 2.5h-1.649z" fill="#231f20" fill-opacity=".7"/></g></svg>
